<?xml version="1.0" standalone="no"?>
<!DOCTYPE svg PUBLIC "-//W3C//DTD SVG 20010904//EN"
 "http://www.w3.org/TR/2001/REC-SVG-20010904/DTD/svg10.dtd">
<svg version="1.0" xmlns="http://www.w3.org/2000/svg"
 width="304.000000pt" height="304.000000pt" viewBox="0 0 304.000000 304.000000"
 preserveAspectRatio="xMidYMid meet">
<metadata>
Created by potrace 1.14, written by Peter Selinger 2001-2017
</metadata>
<g transform="translate(0.000000,304.000000) scale(0.100000,-0.100000)"
fill="#000000" stroke="none">
<path d="M2304 1970 c-7 -7 -8 -28 -3 -58 14 -86 13 -88 -41 -118 -53 -29 -63
-51 -30 -71 14 -9 27 -10 45 -3 15 6 27 10 29 10 1 0 0 -61 -2 -135 -4 -120
-3 -138 13 -155 29 -32 82 -37 132 -10 62 33 113 106 85 124 -4 2 -32 -11 -62
-30 -30 -19 -64 -33 -75 -32 -18 3 -20 10 -18 83 2 44 5 107 9 141 l5 60 65
32 c38 19 64 38 61 45 -4 13 -57 15 -99 3 -25 -7 -28 -6 -28 16 0 43 -20 85
-46 97 -30 13 -28 13 -40 1z"/>
<path d="M2000 1948 c-25 -12 -71 -48 -102 -79 -54 -54 -58 -61 -58 -104 0
-56 20 -79 126 -140 83 -49 134 -91 134 -114 0 -30 -39 -80 -79 -101 -54 -27
-111 -26 -171 5 -52 27 -66 22 -56 -20 10 -40 87 -78 156 -78 55 1 123 24 161
55 40 33 69 91 69 139 0 42 -5 53 -37 87 -21 22 -75 60 -120 86 -98 57 -110
68 -95 100 10 24 90 81 155 112 41 20 49 47 18 64 -29 15 -51 12 -101 -12z"/>
<path d="M2719 1927 c-71 -48 -128 -170 -137 -294 -5 -72 -4 -73 31 -108 30
-30 42 -35 80 -35 50 0 93 28 124 81 10 16 20 29 23 29 3 0 12 -15 21 -33 9
-17 23 -33 32 -35 14 -3 17 6 16 55 0 32 -4 90 -10 128 -5 39 -10 85 -9 103 0
45 -23 86 -63 111 -44 27 -66 26 -108 -2z m98 -87 c9 -20 9 -39 -3 -93 -17
-81 -44 -138 -80 -166 -63 -50 -93 -9 -69 95 35 152 116 239 152 164z"/>
<path d="M1616 1921 c-4 -5 -2 -40 4 -78 5 -37 10 -103 10 -146 l0 -78 -26 20
c-82 64 -185 -32 -221 -204 -20 -102 -12 -158 32 -202 57 -57 127 -42 186 41
22 30 29 34 29 19 0 -25 35 -57 54 -50 21 8 28 118 24 395 l-3 244 -28 24
c-29 25 -52 30 -61 15z m-12 -374 c45 -61 14 -173 -69 -246 -41 -36 -47 -37
-71 -14 -34 34 0 212 52 268 30 33 60 30 88 -8z"/>
<path d="M340 1555 c-52 -14 -106 -33 -120 -43 l-25 -19 4 -269 c3 -256 4
-270 24 -291 47 -51 57 -29 57 126 l0 118 60 18 c84 25 160 71 160 95 0 25 4
25 -115 -9 -55 -16 -101 -28 -101 -27 -1 0 -3 45 -5 100 l-4 98 130 47 c92 33
131 51 133 64 3 14 -4 17 -50 17 -29 -1 -96 -12 -148 -25z"/>
<path d="M1113 1554 c-34 -17 -72 -67 -99 -129 -27 -61 -25 -188 3 -241 62
-117 184 -91 255 53 72 147 25 312 -95 329 -18 3 -46 -2 -64 -12z m92 -86 c45
-77 2 -262 -66 -283 -29 -9 -46 9 -59 65 -18 76 10 190 60 240 24 24 41 18 65
-22z"/>
<path d="M691 1431 c-52 -52 -81 -131 -81 -222 0 -82 16 -125 59 -162 95 -79
229 35 247 211 8 76 -9 134 -52 177 -30 31 -41 35 -84 35 -45 0 -54 -4 -89
-39z m123 -45 c17 -22 21 -42 21 -104 0 -84 -20 -135 -69 -181 l-26 -25 -23
22 c-17 18 -22 36 -25 98 -5 84 12 144 55 195 29 34 39 34 67 -5z"/>
</g>
</svg>
