<svg version="1.0" xmlns="http://www.w3.org/2000/svg" width="405.333" height="405.333" viewBox="0 0 304 304"><path d="M230.4 107c-.7.7-.8 2.8-.3 5.8 1.4 8.6 1.3 8.8-4.1 11.8-5.3 2.9-6.3 5.1-3 7.1 1.4.9 2.7 1 4.5.3 1.5-.6 2.7-1 2.9-1 .1 0 0 6.1-.2 13.5-.4 12-.3 13.8 1.3 15.5 2.9 3.2 8.2 3.7 13.2 1 6.2-3.3 11.3-10.6 8.5-12.4-.4-.2-3.2 1.1-6.2 3s-6.4 3.3-7.5 3.2c-1.8-.3-2-1-1.8-8.3.2-4.4.5-10.7.9-14.1l.5-6 6.5-3.2c3.8-1.9 6.4-3.8 6.1-4.5-.4-1.3-5.7-1.5-9.9-.3-2.5.7-2.8.6-2.8-1.6 0-4.3-2-8.5-4.6-9.7-3-1.3-2.8-1.3-4-.1zM200 109.2c-2.5 1.2-7.1 4.8-10.2 7.9-5.4 5.4-5.8 6.1-5.8 10.4 0 5.6 2 7.9 12.6 14 8.3 4.9 13.4 9.1 13.4 11.4 0 3-3.9 8-7.9 10.1-5.4 2.7-11.1 2.6-17.1-.5-5.2-2.7-6.6-2.2-5.6 2 1 4 8.7 7.8 15.6 7.8 5.5-.1 12.3-2.4 16.1-5.5 4-3.3 6.9-9.1 6.9-13.9 0-4.2-.5-5.3-3.7-8.7-2.1-2.2-7.5-6-12-8.6-9.8-5.7-11-6.8-9.5-10 1-2.4 9-8.1 15.5-11.2 4.1-2 4.9-4.7 1.8-6.4-2.9-1.5-5.1-1.2-10.1 1.2zM271.9 111.3c-7.1 4.8-12.8 17-13.7 29.4-.5 7.2-.4 7.3 3.1 10.8 3 3 4.2 3.5 8 3.5 5 0 9.3-2.8 12.4-8.1 1-1.6 2-2.9 2.3-2.9.3 0 1.2 1.5 2.1 3.3.9 1.7 2.3 3.3 3.2 3.5 1.4.3 1.7-.6 1.6-5.5 0-3.2-.4-9-1-12.8-.5-3.9-1-8.5-.9-10.3 0-4.5-2.3-8.6-6.3-11.1-4.4-2.7-6.6-2.6-10.8.2zm9.8 8.7c.9 2 .9 3.9-.3 9.3-1.7 8.1-4.4 13.8-8 16.6-6.3 5-9.3.9-6.9-9.5 3.5-15.2 11.6-23.9 15.2-16.4zM161.6 111.9c-.4.5-.2 4 .4 7.8.5 3.7 1 10.3 1 14.6v7.8l-2.6-2c-8.2-6.4-18.5 3.2-22.1 20.4-2 10.2-1.2 15.8 3.2 20.2 5.7 5.7 12.7 4.2 18.6-4.1 2.2-3 2.9-3.4 2.9-1.9 0 2.5 3.5 5.7 5.4 5 2.1-.8 2.8-11.8 2.4-39.5l-.3-24.4-2.8-2.4c-2.9-2.5-5.2-3-6.1-1.5zm-1.2 37.4c4.5 6.1 1.4 17.3-6.9 24.6-4.1 3.6-4.7 3.7-7.1 1.4-3.4-3.4 0-21.2 5.2-26.8 3-3.3 6-3 8.8.8zM34 148.5c-5.2 1.4-10.6 3.3-12 4.3l-2.5 1.9.4 26.9c.3 25.6.4 27 2.4 29.1 4.7 5.1 5.7 2.9 5.7-12.6v-11.8l6-1.8c8.4-2.5 16-7.1 16-9.5 0-2.5.4-2.5-11.5.9-5.5 1.6-10.1 2.8-10.1 2.7-.1 0-.3-4.5-.5-10l-.4-9.8 13-4.7c9.2-3.3 13.1-5.1 13.3-6.4.3-1.4-.4-1.7-5-1.7-2.9.1-9.6 1.2-14.8 2.5zM111.3 148.6c-3.4 1.7-7.2 6.7-9.9 12.9-2.7 6.1-2.5 18.8.3 24.1 6.2 11.7 18.4 9.1 25.5-5.3 7.2-14.7 2.5-31.2-9.5-32.9-1.8-.3-4.6.2-6.4 1.2zm9.2 8.6c4.5 7.7.2 26.2-6.6 28.3-2.9.9-4.6-.9-5.9-6.5-1.8-7.6 1-19 6-24 2.4-2.4 4.1-1.8 6.5 2.2zM69.1 160.9c-5.2 5.2-8.1 13.1-8.1 22.2 0 8.2 1.6 12.5 5.9 16.2 9.5 7.9 22.9-3.5 24.7-21.1.8-7.6-.9-13.4-5.2-17.7-3-3.1-4.1-3.5-8.4-3.5-4.5 0-5.4.4-8.9 3.9zm12.3 4.5c1.7 2.2 2.1 4.2 2.1 10.4 0 8.4-2 13.5-6.9 18.1l-2.6 2.5-2.3-2.2c-1.7-1.8-2.2-3.6-2.5-9.8-.5-8.4 1.2-14.4 5.5-19.5 2.9-3.4 3.9-3.4 6.7.5z"/></svg>