<!-- Generated by IcoMoon.io -->
<svg version="1.1" xmlns="http://www.w3.org/2000/svg" width="32" height="32" viewBox="0 0 32 32">
<title>arrow-next</title>
<path d="M24.586 15.035l-14.861-14.16c-0.248-0.236-0.577-0.368-0.92-0.368s-0.672 0.132-0.92 0.368l-0.016 0.016c-0.121 0.115-0.217 0.253-0.282 0.405s-0.099 0.318-0.099 0.484c0 0.166 0.034 0.331 0.099 0.484s0.162 0.291 0.282 0.405l13.995 13.333-13.995 13.328c-0.121 0.115-0.217 0.252-0.282 0.405s-0.099 0.317-0.099 0.484 0.034 0.331 0.099 0.484c0.066 0.153 0.162 0.291 0.282 0.405l0.016 0.016c0.248 0.236 0.577 0.368 0.92 0.368s0.672-0.132 0.92-0.368l14.861-14.16c0.131-0.125 0.235-0.274 0.306-0.44s0.108-0.345 0.108-0.525c0-0.181-0.037-0.359-0.108-0.525s-0.175-0.316-0.306-0.44z"></path>
</svg>
